<?xml version="1.0" encoding="iso-8859-1"?>
<!-- Generator: Adobe Illustrator 19.0.0, SVG Export Plug-In . SVG Version: 6.00 Build 0)  -->
<svg version="1.1" id="Capa_1" xmlns="http://www.w3.org/2000/svg" xmlns:xlink="http://www.w3.org/1999/xlink" x="0px" y="0px"
	 viewBox="0 0 512 512" style="enable-background:new 0 0 512 512;" xml:space="preserve">
<g>
	<g>
		<path d="M212.109,180.66l-0.723-1.415c-8.283-16.238-14.348-33.549-18.027-51.456l-0.001-0.006
			c-2.765-13.46-4.167-27.218-4.167-40.892V70.035V40.034V0H93.704v40.034v30.001V86.89c0,13.674-1.402,27.432-4.167,40.892
			l-0.001,0.006c-3.679,17.908-9.743,35.221-18.027,51.458l-0.726,1.421c-16.664,32.669-25.472,69.318-25.472,105.989v3.697v156.322
			v65.324h192.273v-65.324V290.353v-3.697C237.584,249.985,228.775,213.335,212.109,180.66z M123.706,30.001h35.484v10.032h-35.484
			V30.001z M123.706,86.89V70.035h35.484V86.89c0,9.635,0.606,19.307,1.808,28.91h-39.1
			C123.099,106.197,123.706,96.526,123.706,86.89z M75.312,286.656c0-31.953,7.675-63.89,22.193-92.35l0.726-1.421l0.003-0.006
			c7.647-14.993,13.647-30.779,17.898-47.077h50.629c4.251,16.297,10.251,32.084,17.899,47.078l0.726,1.421
			c14.521,28.465,22.195,60.401,22.195,92.355v3.697H75.312V286.656z M207.582,481.998H75.312v-35.323h132.27V481.998z
			 M207.582,416.674H75.312v-96.319h132.27V416.674z"/>
	</g>
</g>
<g>
	<g>
		<path d="M466.538,244.666l0.151-79.275H275.724v79.275v24.212v5.789h0.207c1.234,27.918,5.571,55.68,12.914,82.601
			c8.117,29.762,12.234,60.499,12.234,91.354V512h140.056v-63.378c0-30.852,4.116-61.588,12.234-91.354
			c7.342-26.919,11.68-54.68,12.915-82.6h0.198l0.043-22.72l0.017-7.281L466.538,244.666L466.538,244.666z M424.424,349.373
			c-8.818,32.339-13.291,65.731-13.291,99.248v33.377H331.08v-33.377c0-33.521-4.472-66.914-13.291-99.248
			c-6.642-24.353-10.613-49.453-11.826-74.706h130.289C435.038,299.921,431.065,325.022,424.424,349.373z M436.535,244.665H305.726
			v-49.273H436.63L436.535,244.665z"/>
	</g>
</g>
<g>
</g>
<g>
</g>
<g>
</g>
<g>
</g>
<g>
</g>
<g>
</g>
<g>
</g>
<g>
</g>
<g>
</g>
<g>
</g>
<g>
</g>
<g>
</g>
<g>
</g>
<g>
</g>
<g>
</g>
</svg>
