<?xml version="1.0" encoding="utf-8"?>
<!-- Generator: Adobe Illustrator 21.0.2, SVG Export Plug-In . SVG Version: 6.00 Build 0)  -->
<svg version="1.1" id="Layer_1" xmlns="http://www.w3.org/2000/svg" xmlns:xlink="http://www.w3.org/1999/xlink" x="0px" y="0px"
	 viewBox="0 0 1000 1000" style="enable-background:new 0 0 1000 1000;" xml:space="preserve">
<style type="text/css">
	.st0{fill:none;}
	.st1{fill:#D40000;}
</style>
<rect class="st0" width="1004" height="1004"/>
<g>
	<path class="st1" d="M333.1,448.2v7.9H272v-90.9h59.9v7.9H281v32.8h44.4v7.6H281v34.7H333.1z"/>
	<path class="st1" d="M349.8,389.4l20,26.1l1,1.9l1-1.9l20-26.1h9.3l-25.5,33.5l25.5,33.2h-9.3l-20-26l-1-1.8l-1,1.8l-20,26h-9.3
		l25.5-33.2l-25.5-33.5H349.8z"/>
	<path class="st1" d="M444.7,452.9c-0.5,0.3-1.3,0.6-2.2,1c-1,0.4-2.1,0.9-3.4,1.3c-1.3,0.4-2.7,0.8-4.4,1.2
		c-1.6,0.3-3.3,0.5-5.1,0.5c-1.9,0-3.7-0.3-5.4-0.8c-1.7-0.5-3.2-1.3-4.5-2.4c-1.3-1.1-2.3-2.4-3.1-4c-0.8-1.6-1.2-3.5-1.2-5.6
		v-47.7h-9.2v-6.9h9.2v-22.5h8.7v22.5h15.4v6.9h-15.4v45.3c0.2,2.5,1,4.3,2.6,5.4c1.6,1.2,3.4,1.7,5.4,1.7c2.5,0,4.6-0.4,6.5-1.2
		c1.9-0.8,3.1-1.4,3.6-1.7L444.7,452.9z"/>
	<path class="st1" d="M482.7,457.4c-4.9,0-9.3-0.9-13.4-2.8c-4.1-1.8-7.6-4.4-10.6-7.6c-3-3.2-5.3-6.9-7-11.1
		c-1.7-4.2-2.5-8.7-2.5-13.4c0-4.7,0.8-9.1,2.5-13.2c1.7-4.1,4-7.8,6.9-10.9c2.9-3.1,6.5-5.6,10.6-7.4c4.1-1.8,8.5-2.8,13.3-2.8
		c4.9,0,9.3,0.9,13.4,2.8c4.1,1.8,7.5,4.3,10.4,7.5c2.9,3.2,5.2,6.8,6.8,10.9c1.6,4.1,2.4,8.4,2.4,13.1c0,0.7,0,1.4,0,2
		c0,0.7,0,1.2-0.1,1.4h-57.1c0.3,3.6,1.1,6.9,2.5,9.9c1.4,3,3.2,5.7,5.4,7.9c2.2,2.2,4.8,3.9,7.6,5.2c2.9,1.2,5.9,1.9,9.2,1.9
		c2.1,0,4.3-0.3,6.4-0.9c2.1-0.6,4.1-1.4,5.9-2.4s3.4-2.3,4.9-3.8c1.4-1.5,2.6-3.1,3.3-4.9l7.6,2c-1,2.5-2.5,4.7-4.4,6.7
		c-1.9,2-4.1,3.8-6.5,5.2c-2.5,1.5-5.2,2.6-8.2,3.5C489,457,485.9,457.4,482.7,457.4z M507.3,419.2c-0.3-3.6-1.1-6.8-2.5-9.8
		c-1.4-2.9-3.2-5.5-5.4-7.6c-2.2-2.1-4.7-3.8-7.6-5c-2.9-1.2-5.9-1.8-9.2-1.8c-3.2,0-6.3,0.6-9.2,1.8c-2.9,1.2-5.4,2.9-7.6,5
		c-2.2,2.1-3.9,4.7-5.2,7.7c-1.3,3-2.1,6.2-2.4,9.7H507.3z"/>
	<path class="st1" d="M562.3,397.1c-5.9,0.2-11,1.8-15.4,4.9c-4.4,3.1-7.4,7.3-9.2,12.7v41.5H529v-66.7h8.2v16
		c2.5-5.1,5.8-9.1,10-12c4.2-2.9,8.7-4.4,13.4-4.4c0.7,0,1.2,0,1.7,0.1V397.1z"/>
	<path class="st1" d="M630,456.1h-8.7v-37.2c0-7.9-1.2-13.7-3.5-17.3c-2.3-3.6-6-5.4-10.8-5.4c-2.6,0-5.1,0.5-7.7,1.4
		c-2.6,0.9-4.9,2.3-7.1,4c-2.2,1.7-4.1,3.7-5.8,6.1c-1.7,2.3-2.9,4.9-3.7,7.6v40.8H574v-66.7h7.9v15.1c2.7-4.9,6.6-8.8,11.7-11.8
		c5.1-3,10.6-4.5,16.6-4.5c3.7,0,6.8,0.7,9.3,2c2.6,1.4,4.6,3.3,6.1,5.8c1.5,2.5,2.6,5.5,3.3,9.1c0.7,3.6,1,7.6,1,11.9V456.1z"/>
	<path class="st1" d="M665.3,457.4c-3.2,0-6.1-0.5-8.8-1.6c-2.7-1.1-5-2.5-7-4.4c-2-1.9-3.6-4.1-4.7-6.6c-1.1-2.5-1.7-5.2-1.7-8.1
		c0-2.9,0.7-5.6,2-8.1c1.4-2.5,3.3-4.6,5.8-6.4c2.5-1.8,5.4-3.2,8.8-4.2c3.4-1,7.2-1.5,11.3-1.5c3.4,0,6.9,0.3,10.4,0.9
		c3.5,0.6,6.6,1.5,9.3,2.6v-6c0-5.9-1.7-10.6-5-14s-7.9-5.2-13.8-5.2c-3.4,0-6.9,0.7-10.5,2c-3.6,1.4-7.2,3.3-10.9,5.9l-3.1-5.8
		c8.6-5.8,17-8.7,25.1-8.7c8.4,0,14.9,2.3,19.7,7c4.8,4.7,7.2,11.2,7.2,19.5v30.1c0,2.4,1.1,3.6,3.2,3.6v7.7
		c-1.5,0.3-2.6,0.4-3.3,0.4c-2.2,0-3.9-0.6-5.2-1.7c-1.2-1.1-1.9-2.6-2-4.6L692,445c-3.1,4-6.9,7.1-11.6,9.2
		C675.7,456.3,670.7,457.4,665.3,457.4z M667.4,450.7c4.5,0,8.7-0.9,12.5-2.6c3.8-1.7,6.7-4,8.6-6.8c0.8-0.8,1.3-1.6,1.7-2.5
		c0.4-0.9,0.6-1.7,0.6-2.5v-10.9c-2.9-1.1-5.9-2-9-2.6c-3.1-0.6-6.3-0.9-9.5-0.9c-6.1,0-11.1,1.3-15,3.8s-5.8,5.9-5.8,10.1
		c0,2,0.4,4,1.2,5.8c0.8,1.8,1.9,3.4,3.3,4.7c1.4,1.3,3.1,2.4,5.1,3.1S665.2,450.7,667.4,450.7z"/>
	<path class="st1" d="M718.7,362.7h8.7V441c0,2.5,0.7,4.4,2,5.8c1.4,1.4,3.3,2.1,5.8,2.1c0.9,0,2-0.1,3.3-0.4c1.3-0.3,2.5-0.6,3.6-1
		l1.5,7c-1.6,0.7-3.6,1.2-6,1.7c-2.3,0.4-4.4,0.6-6.1,0.6c-4,0-7.2-1.1-9.5-3.4c-2.3-2.3-3.5-5.4-3.5-9.5V362.7z"/>
	<path class="st1" d="M346.6,609.7v-90.9h9v82.9h52.5v7.9H346.6z"/>
	<path class="st1" d="M445.2,611c-4.9,0-9.3-0.9-13.3-2.8c-4-1.8-7.5-4.3-10.4-7.5c-2.9-3.2-5.2-6.8-6.8-11
		c-1.6-4.2-2.4-8.6-2.4-13.2c0-4.7,0.8-9.1,2.5-13.3c1.7-4.2,4-7.8,6.9-11c2.9-3.2,6.4-5.7,10.4-7.6c4-1.9,8.4-2.8,13.2-2.8
		c4.8,0,9.2,0.9,13.2,2.8c4.1,1.9,7.6,4.4,10.5,7.6c2.9,3.2,5.2,6.8,6.9,11c1.7,4.2,2.5,8.6,2.5,13.3c0,4.6-0.8,9-2.4,13.2
		c-1.6,4.2-3.9,7.9-6.8,11c-2.9,3.2-6.4,5.7-10.5,7.5C454.5,610.1,450.1,611,445.2,611z M421,576.7c0,3.8,0.6,7.2,1.9,10.4
		c1.3,3.2,3,6,5.2,8.4c2.2,2.4,4.7,4.3,7.7,5.7c2.9,1.4,6.1,2,9.4,2s6.5-0.7,9.4-2.1c2.9-1.4,5.5-3.3,7.7-5.8c2.2-2.4,4-5.3,5.2-8.5
		c1.3-3.2,1.9-6.7,1.9-10.5c0-3.7-0.6-7.1-1.9-10.4c-1.3-3.3-3-6.1-5.2-8.6c-2.2-2.4-4.8-4.4-7.7-5.8c-2.9-1.4-6.1-2.1-9.4-2.1
		s-6.4,0.7-9.3,2.1c-2.9,1.4-5.5,3.3-7.7,5.8c-2.2,2.5-4,5.4-5.2,8.6C421.6,569.4,421,572.9,421,576.7z"/>
	<path class="st1" d="M519.7,610.6c-4.6,0-8.8-1-12.6-2.9c-3.8-1.9-7.1-4.5-9.9-7.6c-2.8-3.2-4.9-6.8-6.5-10.9
		c-1.5-4.1-2.3-8.3-2.3-12.7c0-4.6,0.7-9,2.2-13.2c1.5-4.2,3.6-7.9,6.3-11.1c2.7-3.2,6-5.7,9.8-7.6c3.8-1.9,8-2.8,12.6-2.8
		c5.7,0,10.7,1.4,14.8,4.3c4.2,2.9,7.8,6.5,10.8,10.8v-14h7.8V610c0,4.6-0.9,8.7-2.6,12.2c-1.8,3.5-4.1,6.5-7,8.9
		c-2.9,2.4-6.4,4.2-10.4,5.4c-4,1.2-8.2,1.8-12.6,1.8c-7.7,0-13.9-1.4-18.6-4.1c-4.7-2.7-8.5-6.4-11.4-11l5.4-4.2
		c2.6,4.3,6.1,7.4,10.5,9.4c4.4,2,9,3,14.1,3c3.2,0,6.3-0.4,9.2-1.3c2.9-0.9,5.4-2.2,7.6-4c2.2-1.8,3.9-4,5.2-6.7
		c1.3-2.7,1.9-5.8,1.9-9.4v-13.2c-2.6,4.3-6.1,7.6-10.5,10.1C529.2,609.4,524.5,610.6,519.7,610.6z M522.1,603.3
		c2.6,0,5.1-0.5,7.6-1.4c2.5-0.9,4.7-2.2,6.7-3.8c2-1.6,3.7-3.3,5.1-5.3c1.4-2,2.3-4,2.7-6v-20.6c-0.9-2.4-2.2-4.6-3.8-6.7
		c-1.6-2-3.5-3.8-5.5-5.2s-4.2-2.6-6.6-3.5c-2.3-0.9-4.7-1.3-7.1-1.3c-3.8,0-7.1,0.8-10,2.4c-2.9,1.6-5.4,3.6-7.5,6.2
		c-2,2.6-3.6,5.5-4.7,8.7c-1.1,3.2-1.6,6.5-1.6,9.9c0,3.6,0.6,7,1.9,10.2c1.3,3.2,3,6.1,5.3,8.5c2.3,2.4,4.9,4.4,7.9,5.8
		C515.4,602.6,518.6,603.3,522.1,603.3z"/>
	<path class="st1" d="M572,529.1v-12.8h8.7v12.8H572z M572,609.7V543h8.7v66.7H572z"/>
	<path class="st1" d="M656,609.7h-8.7v-37.2c0-7.9-1.2-13.7-3.5-17.3c-2.3-3.6-6-5.4-10.8-5.4c-2.6,0-5.1,0.5-7.7,1.4
		c-2.6,0.9-4.9,2.3-7.1,4c-2.2,1.7-4.1,3.7-5.8,6.1c-1.7,2.3-2.9,4.9-3.7,7.6v40.8h-8.7V543h7.9v15.1c2.7-4.9,6.6-8.8,11.7-11.8
		c5.1-3,10.6-4.5,16.6-4.5c3.7,0,6.8,0.7,9.3,2c2.6,1.4,4.6,3.3,6.1,5.8c1.5,2.5,2.6,5.5,3.3,9.1c0.7,3.6,1,7.6,1,11.9V609.7z"/>
</g>
</svg>
