<svg id="Layer_1" data-name="Layer 1" xmlns="http://www.w3.org/2000/svg" xmlns:xlink="http://www.w3.org/1999/xlink" viewBox="0 0 1000 997.04"><defs><style>.cls-1{fill:none;}.cls-2{clip-path:url(#clip-path);}.cls-3{fill:#fff;fill-rule:evenodd;}</style><clipPath id="clip-path" transform="translate(0 -1.48)"><rect class="cls-1" width="1000" height="1000"/></clipPath></defs><title>gewislogowhite</title><g class="cls-2"><polygon class="cls-3" points="149.41 831.72 148.43 833.26 147.44 834.81 146.32 838.19 145.75 841.85 146.04 845.51 146.88 849.32 148.43 852.97 150.54 856.36 153.5 859.6 155.47 861.42 157.72 862.98 159.84 864.24 162.23 865.23 164.48 865.93 166.88 866.5 169.27 866.64 171.67 866.64 174.2 866.22 176.59 865.65 178.99 864.94 181.38 863.82 183.78 862.41 186.17 860.86 188.42 859.03 190.53 856.92 193.64 853.4 196.03 850.16 197.57 846.92 198.7 843.26 199.41 840.02 199.69 836.92 199.55 833.83 198.98 830.87 198 828.19 196.59 825.51 194.76 822.99 192.51 820.59 190.39 818.76 188.28 817.2 186.03 815.94 183.78 814.96 181.38 814.25 178.99 813.83 176.59 813.83 174.06 813.97 177.58 808.05 174.2 804.81 154.77 825.1 171.38 841 175.61 836.64 163.78 825.38 166.59 822.84 169.55 820.87 172.65 819.74 175.61 819.18 178.71 819.32 181.67 820.3 184.62 821.86 187.44 824.11 190.11 827.06 191.1 828.75 191.94 830.3 192.51 831.99 192.93 833.68 193.07 835.37 193.07 837.07 192.93 838.89 192.37 840.59 190.96 844.24 188.56 847.91 185.32 851.71 181.8 854.8 178.28 857.34 174.62 858.89 172.94 859.46 171.1 859.74 169.27 859.88 167.58 859.74 165.89 859.46 164.2 859.03 162.51 858.33 160.96 857.48 157.86 855.09 155.89 852.84 154.34 850.73 153.22 848.33 152.65 846.08 152.37 843.69 152.65 841.29 153.36 838.89 154.49 836.64 149.41 831.72 149.41 831.72"/><polygon class="cls-3" points="127.3 831.01 167.72 797.64 143.08 767.78 138.15 771.86 158.29 796.08 144.91 807.07 126.6 785.1 121.81 789.18 139.98 811.15 127.73 821.43 107.87 797.49 102.94 801.58 127.3 831.01 127.3 831.01"/><polygon class="cls-3" points="94.77 790.87 138.85 762.28 135.05 756.51 98.02 780.59 127.02 744.12 123.22 738.21 78.16 749.75 115.19 725.81 111.53 720.04 67.46 748.49 72.95 756.93 118.29 745.53 89.14 782.14 94.77 790.87 94.77 790.87"/><polygon class="cls-3" points="60.13 734.69 107.17 711.59 90.13 676.95 84.5 679.62 98.3 707.93 82.66 715.53 70.13 689.9 64.5 692.72 77.03 718.35 62.67 725.39 49.01 697.51 43.23 700.33 60.13 734.69 60.13 734.69"/><polygon class="cls-3" points="37.88 687.37 87.17 669.34 73.79 633.01 67.88 635.12 78.72 664.69 62.38 670.75 52.53 643.85 46.61 646.1 56.33 672.86 41.4 678.35 30.7 649.2 24.64 651.46 37.88 687.37 37.88 687.37"/><polygon class="cls-3" points="20.7 638.5 71.68 625.97 69.99 619.21 28.87 629.35 63.65 593.29 61.68 585.55 10.84 598.09 12.39 604.84 53.65 594.7 18.73 630.33 20.7 638.5 20.7 638.5"/><polygon class="cls-3" points="18.31 543.44 14.64 544.43 11.41 545.84 10 546.82 8.73 547.81 7.6 549.08 6.76 550.34 5.21 553.44 4.37 557.1 4.08 561.05 4.37 565.7 5.21 569.63 6.48 573.02 8.31 575.97 10.42 578.37 12.96 580.2 15.91 581.47 19.15 582.03 22.67 581.89 25.49 581.18 27.88 580.06 29.86 578.51 31.41 576.4 32.25 574.99 32.81 573.44 33.52 570.2 34.93 555.55 35.77 551.47 36.33 549.92 37.18 548.65 38.16 547.53 39.29 546.69 40.56 546.12 42.25 545.84 44.5 545.84 46.33 546.26 48.02 547.24 49.43 548.8 50.7 550.77 51.68 553.02 52.38 555.42 52.95 558.09 53.23 561.33 52.95 564.29 52.24 566.82 51.26 569.07 49.71 570.9 47.74 572.32 45.49 573.44 42.67 574.14 43.65 580.76 46.61 580.2 49.01 579.49 50.84 578.65 52.67 577.38 54.22 575.97 55.76 574.14 57.03 572.03 58.02 570.06 58.87 567.52 59.29 564.57 59.29 561.19 59.01 557.67 58.16 553.16 56.75 549.08 55.06 545.7 52.81 543.02 51.68 541.89 50.27 540.91 48.87 540.07 47.46 539.5 45.77 539.08 44.22 538.94 40.56 538.94 38.02 539.5 35.77 540.35 33.8 541.61 31.97 543.16 30.56 544.99 29.43 547.11 28.73 549.64 28.3 552.32 26.61 568.79 26.05 571.19 25.63 572.17 24.93 573.02 24.08 573.72 23.09 574.28 20.84 574.99 18.73 575.13 16.9 574.71 15.21 574 13.8 572.74 12.53 571.19 11.55 569.35 10.84 566.96 10.28 564.42 10.14 561.61 10.28 559.08 10.98 556.82 11.97 554.85 13.24 553.16 14.93 551.75 16.9 550.77 19.3 550.21 18.31 543.44 18.31 543.44"/><polygon class="cls-3" points="16.76 487.39 13.1 488.1 9.86 489.65 6.9 491.62 4.51 494.3 2.53 497.39 1.13 501.06 0.28 504.86 0 509.08 0.14 511.9 0.56 514.58 1.27 517.11 2.11 519.36 3.24 521.48 4.65 523.59 6.2 525.28 7.89 526.97 9.86 528.38 11.97 529.64 14.22 530.77 16.76 531.62 19.43 532.32 22.25 532.74 25.35 533.02 28.45 533.02 31.55 532.88 34.36 532.6 37.18 531.9 39.71 531.19 42.11 530.21 44.36 529.08 46.33 527.67 48.16 526.27 49.85 524.58 51.26 522.74 52.53 520.77 53.51 518.66 54.36 516.41 54.92 514.01 55.2 511.48 55.2 508.8 54.78 504.43 53.65 500.35 51.82 496.69 50.7 495.14 49.43 493.59 48.02 492.18 46.47 490.92 42.81 488.94 38.73 487.39 34.08 486.41 34.22 493.31 37.46 494.16 40.42 495.28 42.95 496.69 44.92 498.38 46.61 500.35 47.74 502.61 48.58 505.14 48.87 507.96 48.58 512.04 47.6 515.42 46.9 516.97 46.05 518.52 44.92 519.78 43.65 520.91 42.25 522.04 40.7 522.88 37.04 524.43 32.81 525.28 27.88 525.7 23.23 525.56 19.01 524.71 15.35 523.45 12.25 521.48 10.98 520.35 9.86 519.08 8.73 517.67 8.03 516.13 7.32 514.43 6.76 512.74 6.48 510.92 6.34 508.94 6.48 506.12 6.9 503.59 7.75 501.19 9.01 499.23 10.56 497.54 12.39 496.13 14.5 495 16.9 494.3 16.76 487.39 16.76 487.39"/><polygon class="cls-3" points="1.41 474.72 53.65 479.37 54.36 472.19 29.99 470.07 32.39 442.89 56.75 445.15 57.46 437.97 5.21 433.32 4.51 440.36 26.05 442.33 23.66 469.51 2.11 467.54 1.41 474.72 1.41 474.72"/><path class="cls-3" d="M10.42,405.22,58,434.94l1.41-7.18-13.94-8.45,4.22-20.56,15.91-2L67.17,389l-55.06,8.31-1.69,7.89ZM18.73,403l24.22-3-3.24,15.77L18.73,403Z" transform="translate(0 -1.48)"/><path class="cls-3" d="M18.73,368.33,68.87,384l2.11-6.9-21.12-6.62,5.35-16.9.56-2.82v-3l-.56-2.67-1.13-2.53-1.69-2.4-2.11-2-2.54-1.69-3-1.27-3.1-.56-2.82-.14-2.82.56-2.67,1L31,337.49l-2,2-1.55,2.39-1.27,2.67-.28,1-7.18,22.81Zm25.35.28-17.33-5.35,4.37-13.8L32,347.2l1-1.83,1.27-1.55,1.27-1,1.55-.7,1.69-.42,1.83.14,2.11.42,2,.84,1.55,1,1.27,1.27,1,1.41.56,1.55.14,1.83-.14,2-.42,2.11-4.5,14.36Z" transform="translate(0 -1.48)"/><polygon class="cls-3" points="41.54 301.23 97.03 307.14 100.41 300.24 61.68 259.96 58.02 267.29 91.82 300.24 45.06 294.19 41.54 301.23 41.54 301.23"/><path class="cls-3" d="M74.92,239.47,109,284l3.94-6.19-10-12.82,11-17.74,15.77,3.66,4.08-6.62-54.5-11.55-4.37,6.76Zm8.59,1,23.66,5.63-8.45,13.66L83.51,240.46Z" transform="translate(0 -1.48)"/><polygon class="cls-3" points="95.34 206.73 136.46 239.12 140.82 233.77 107.45 207.44 157.3 212.79 162.23 206.45 121.11 174.06 116.74 179.41 150.12 205.75 100.55 200.11 95.34 206.73 95.34 206.73"/><polygon class="cls-3" points="142.94 149.27 188 179.13 193.78 174.06 173.78 133.64 211.66 158 217.29 153.08 192.65 104.77 186.73 109.99 207.86 148.43 170.68 124.49 164.9 129.56 184.48 169.41 148.71 143.93 142.94 149.27 142.94 149.27"/><polygon class="cls-3" points="202.22 98.86 233.21 141.11 238.98 136.88 208 94.64 202.22 98.86 202.22 98.86"/><polygon class="cls-3" points="260.38 78.72 257.99 75.76 256.72 74.5 255.32 73.37 252.36 71.82 250.81 71.26 249.26 70.98 245.88 70.98 242.22 71.54 238.42 72.95 234.33 75.2 231.09 77.59 228.42 80.13 226.59 82.94 225.32 86.04 224.62 89.14 224.76 92.24 225.6 95.48 227.29 98.58 228.98 100.83 230.95 102.52 233.21 103.65 235.74 104.21 237.43 104.35 239.12 104.35 242.36 103.65 256.3 98.86 258.41 98.3 260.24 97.88 261.93 97.73 263.48 98.02 264.75 98.44 266.02 99.14 267.14 100.13 267.99 101.39 268.98 103.36 269.4 105.34 269.26 107.31 268.41 109.28 267.14 111.25 265.46 113.08 263.48 114.77 261.37 116.32 258.41 117.87 255.74 118.86 253.2 119.28 250.67 119.28 248.41 118.58 246.16 117.45 244.33 115.76 242.5 113.65 236.73 117.17 238.56 119.7 240.25 121.53 241.8 122.94 243.63 123.92 245.74 124.91 247.99 125.47 250.39 125.9 252.64 125.9 255.18 125.47 258.13 124.63 261.09 123.36 264.19 121.67 267.99 118.86 271.09 116.04 273.48 113.08 275.03 109.99 275.88 106.75 276.02 105.2 276.02 103.51 275.17 100.27 273.62 97.17 272.07 95.06 270.38 93.37 268.41 91.96 266.3 91.11 264.04 90.55 261.65 90.41 259.12 90.69 256.44 91.39 240.67 96.75 238.28 97.31 236.16 96.89 235.18 96.47 234.19 95.9 232.64 93.93 231.8 92.24 231.38 90.41 231.38 88.58 231.8 86.75 232.64 84.92 234.05 83.23 235.74 81.68 237.99 80.13 240.39 78.72 242.78 77.88 245.18 77.45 247.29 77.59 249.4 78.02 251.37 79 253.06 80.41 254.61 82.39 260.38 78.72 260.38 78.72"/><polygon class="cls-3" points="264.47 58.87 287.42 106.04 293.9 102.94 285.87 86.33 289.54 75.62 317.7 91.25 326.01 87.17 292.21 68.86 302.07 40.56 293.62 44.64 282.07 78.58 270.95 55.77 264.47 58.87 264.47 58.87"/><polygon class="cls-3" points="312.21 36.47 324.32 70.13 325.16 72.24 326.43 74.36 327.98 76.19 329.67 77.88 331.64 79.28 333.9 80.55 336.15 81.4 338.54 81.82 341.08 81.96 343.61 81.68 346.43 81.12 349.25 80.27 353.61 78.44 357.13 76.05 358.68 74.64 359.95 73.23 361.07 71.68 362.06 69.99 362.76 68.3 363.33 66.61 363.89 62.95 363.75 59.29 362.91 55.77 350.94 22.53 344.32 24.93 355.72 56.9 355.87 57.46 356.43 59.71 356.85 61.96 356.71 64.21 356.15 66.33 355.16 68.44 353.75 70.27 352.06 71.82 349.95 73.23 347.56 74.21 344.6 75.06 341.92 75.2 339.39 74.92 336.99 74.07 334.88 72.67 333.05 70.83 331.5 68.44 330.24 65.62 318.83 34.08 312.21 36.47 312.21 36.47"/><polygon class="cls-3" points="365.58 18.17 377.55 69.29 384.31 67.6 374.59 26.34 410.36 61.54 418.11 59.71 406 8.59 399.24 10.14 409.1 51.54 373.75 16.2 365.58 18.17 365.58 18.17"/><path class="cls-3" d="M421.21,7.39l6.2,52.11,22-2.53,2.25-.42,2.11-.7,2.11-.85,1.83-1,1.69-1.27,1.55-1.55,1.55-1.69,1.27-1.83,1-2,1-2.25.7-2.26.56-2.53.42-2.53.14-2.67V30.63l-.28-3-.42-2.82-.7-2.67-.84-2.53-1-2.4L463.17,15l-1.27-2-1.55-1.83-1.69-1.55-2.39-1.83-2.54-1.41-2.53-.7-3-.7-2.82-.14H442.9L421.21,7.39ZM433.74,52.6l-4.65-40,12.53-1.41,3.66-.14,3.38.56,2.82,1.27L454,14.72l2.11,2.53,1.69,3.24,1.27,3.8.85,4.36.28,3.95-.14,3.66-.56,3.38-.85,2.82-.85,1.69-1,1.55L455.71,47l-1.13,1.27-1.41,1-1.41.7-1.41.56-1.55.28L433.74,52.6Z" transform="translate(0 -1.48)"/><polygon class="cls-3" points="477.82 0.28 478.24 52.67 516.96 52.39 516.83 46.05 485.43 46.33 485.28 28.87 513.87 28.73 513.73 22.25 485.14 22.53 485 6.62 516.13 6.34 516.13 0 477.82 0.28 477.82 0.28"/><polygon class="cls-3" points="551.89 2.39 544.58 54.36 582.87 59.85 583.72 53.51 552.6 49.15 554.98 31.83 583.29 35.91 584.14 29.57 555.84 25.63 558.09 9.72 588.93 14.08 589.78 7.75 551.89 2.39 551.89 2.39"/><polygon class="cls-3" points="603.01 10.42 590.05 61.26 596.82 62.95 607.24 21.83 622.73 69.57 630.47 71.4 643.28 20.7 636.67 18.87 626.11 59.99 611.17 12.39 603.01 10.42 603.01 10.42"/><polygon class="cls-3" points="677.93 32.81 658.92 81.68 665.54 84.36 684.68 35.49 677.93 32.81 677.93 32.81"/><polygon class="cls-3" points="698.49 40.7 675.68 87.88 681.88 90.97 700.33 52.81 705.95 102.52 713.13 106.04 735.95 58.87 729.61 55.77 711.17 94.07 706.09 44.36 698.49 40.7 698.49 40.7"/><polygon class="cls-3" points="749.33 66.47 721.59 110.97 727.78 114.77 740.31 94.64 762.14 108.15 765.52 102.8 743.69 89.28 752.01 75.62 776.93 91.11 780.31 85.62 749.33 66.47 749.33 66.47"/><path class="cls-3" d="M808.47,106.53l-2.26-1.69-2.39-1.41-2.4-1L799,101.6,796.5,101l-2.39-.28h-2.54l-2.39.28-2.4.56-2.4.7-2.39,1-2.25,1.41-2.26,1.55-2.11,1.83-2.11,2-2,2.4-1.69,2.39-1.56,2.53-1.26,2.54-1,2.53L765.1,125l-.56,2.53-.14,2.54.14,2.53.28,2.39.56,2.39.85,2.26,1.13,2.25,1.4,2.25,1.55,2,2,2,2.11,1.83,2.25,1.69,2.39,1.27,2.4,1.12,2.4.85,2.53.56,2.39.28h2.54l2.39-.28,2.4-.56,2.4-.7,2.39-1.12,2.26-1.27,2.25-1.55,2.26-1.83,2-2.11,2-2.4,1.82-2.4,1.55-2.53,1.13-2.53,1-2.54.71-2.53.56-2.53.14-2.4-.14-2.53-.28-2.39-.56-2.4-.85-2.4-1.13-2.25-1.4-2.11-1.69-2.11-1.84-1.83-2.11-1.83Zm-3.95,4.79,1.56,1.41,1.26,1.41,1.13,1.55,1,1.55.84,1.69.56,1.69.28,1.69.14,1.83-.14,3.8-1,3.8-1.82,3.8-2.54,3.94-3.09,3.38-3.38,2.68-3.38,1.83-1.82.7-1.84.42-1.84.28-1.69.14-1.82-.14-1.84-.42-3.51-1.27-1.69-.84L778.34,145l-1.56-1.27-1.4-1.41-1.13-1.55-.84-1.55-.85-1.69-.56-1.69-.28-1.69-.14-1.83.14-3.8,1.13-3.8,1.69-3.94,2.67-3.81,3-3.38,3.38-2.67,3.38-1.83,3.66-1.12,1.84-.28,1.69-.14,1.82.14,1.84.42,3.51,1.27,1.56.85,1.68,1.13Z" transform="translate(0 -1.48)"/><path class="cls-3" d="M837.48,132.31l-36.89,37.32,5.06,5.07,15.92-16.06,12.82,12.82,1,1.13.84,1.27.56,1.27.29,1.41v2l-.56,1.84-1.69,2.25L831.72,186l-2.26,2.53L828,190.33l-1.82,2.25-.85,1.55,6.06,6.19.85-.85-.14-1.27v-1.13l.28-.85.43-.84,8.44-9.3,1.84-2.53.56-1.27L844,181l.14-1.27-.14-1.27-1-3.1,2.11.56,1.84.14h2l1.69-.28,1.69-.7,1.69-.85,1.69-1.27,1.55-1.41,1.69-2,1.26-2.11.85-2,.42-2.25v-1.55l-.28-1.69L860,156.67l-2-3.38-2.67-3.24-17.88-17.75Zm.84,9.43L851,154.28l.14.28,1.69,2,.84,1.27.43,1.12.13,1.41v1.41l-.42,1.27-.56,1.41-.84,1.41-1.27,1.41-1.4,1.26-1.56.85-1.55.56-1.69.14-1.55-.14-1.69-.56-1.55-1-1.4-1.12-13-12.82,12.53-12.67Z" transform="translate(0 -1.48)"/><polygon class="cls-3" points="876.63 170.68 835.52 203.07 839.74 208.56 874.38 181.24 848.75 220.11 853.26 225.74 897.06 210.11 862.41 237.29 866.63 242.64 907.76 210.25 901.55 202.36 857.48 218 882.98 178.85 876.63 170.68 876.63 170.68"/><path class="cls-3" d="M923.82,237.08l-54.93,10.56,3.8,6.19,15.92-3.24,10.84,17.89-10.28,12.39,4.09,6.62L928,244l-4.22-6.9Zm-4.51,7.33L903.53,263l-8.31-13.8,24.08-4.79Z" transform="translate(0 -1.48)"/><polygon class="cls-3" points="940.43 263.48 934.79 266.16 942.41 282.21 900.86 302.21 903.95 308.69 945.5 288.69 953.25 304.75 959.02 301.93 940.43 263.48 940.43 263.48"/><polygon class="cls-3" points="962.4 311.36 913.67 330.8 916.34 337.42 965.07 317.98 962.4 311.36 962.4 311.36"/><polygon class="cls-3" points="968.46 378.12 971.7 376.43 974.51 374.03 976.62 371.21 978.32 368.12 979.3 364.6 979.72 360.8 979.44 356.71 978.59 352.63 977.61 349.95 976.48 347.56 975.21 345.3 973.66 343.33 971.97 341.64 970.15 339.95 968.17 338.69 966.06 337.56 963.8 336.71 961.42 336.01 958.87 335.73 956.2 335.45 953.52 335.58 950.71 335.87 947.61 336.43 944.65 337.27 941.7 338.4 939.02 339.53 936.63 340.8 934.37 342.2 932.26 343.9 930.42 345.58 928.88 347.42 927.47 349.39 926.35 351.36 925.51 353.47 924.8 355.72 924.38 358.12 924.38 360.37 924.38 362.91 924.8 365.44 925.51 367.98 927.18 372.2 929.31 375.72 930.57 377.27 931.98 378.68 933.53 379.95 935.22 381.07 938.88 382.76 940.72 383.32 942.83 383.75 947.19 384.17 951.98 383.75 950.01 377.13 946.63 377.27 943.52 376.99 940.72 376.29 938.17 375.3 936.06 373.75 934.37 371.92 932.97 369.66 931.84 366.99 931 363.19 930.86 361.36 931 359.53 931.28 357.83 931.7 356.15 932.4 354.6 933.24 353.19 934.37 351.78 935.64 350.37 938.74 347.98 942.54 346.01 947.19 344.31 951.83 343.19 956.07 342.77 959.86 343.05 963.38 344.04 966.35 345.73 967.75 346.85 969.02 347.98 970 349.39 970.99 350.94 971.84 352.63 972.53 354.6 973.1 357.27 973.39 359.81 973.24 362.34 972.53 364.6 971.55 366.71 970.28 368.54 968.46 370.09 966.35 371.5 968.46 378.12 968.46 378.12"/><path class="cls-3" d="M989.29,402.27l-55.19-9.43,1.4,7.32,16.06,2.54,3.95,20.56-14.09,7.89,1.56,7.74,47.88-28.59-1.56-8Zm-6.9,5.21-21.12,12-3.09-15.77,24.21,3.8Z" transform="translate(0 -1.48)"/><polygon class="cls-3" points="984.08 498.1 987.89 497.54 991.12 496.41 993.94 494.58 995.22 493.45 996.2 492.18 997.18 490.92 998.02 489.37 999.29 485.85 999.86 481.9 1000 477.26 999.58 473.31 998.58 469.65 997.04 466.56 995.07 464.02 992.67 461.91 989.85 460.5 986.61 459.65 983.1 459.51 980.28 459.94 977.88 460.78 975.77 462.19 973.95 464.16 973.1 465.43 972.39 466.98 971.27 470.07 968.6 484.58 968.04 486.69 967.47 488.52 966.62 490.07 965.78 491.34 964.65 492.32 963.53 492.89 962.11 493.45 960.56 493.59 958.31 493.45 956.34 492.89 954.8 491.76 953.52 490.07 952.54 487.96 951.69 485.57 951.13 483.17 950.85 480.35 950.99 477.12 951.41 474.3 952.25 471.76 953.67 469.65 955.22 467.96 957.33 466.69 959.73 465.85 962.54 465.29 962.25 458.67 959.16 458.95 956.76 459.37 954.8 460.22 952.96 461.2 951.13 462.61 949.45 464.3 948.03 466.13 946.9 468.1 945.92 470.5 945.21 473.45 944.79 476.69 944.79 480.21 945.36 485 946.21 489.09 947.76 492.61 949.58 495.56 950.71 496.69 951.98 497.82 953.38 498.66 954.8 499.37 956.34 499.93 957.89 500.35 961.42 500.63 964.09 500.21 966.48 499.65 968.6 498.52 970.42 497.12 971.97 495.42 973.24 493.45 974.23 491.06 974.93 488.38 978.03 472.05 978.88 469.79 979.44 468.81 980.14 468.1 981.12 467.4 982.12 466.98 984.5 466.41 986.48 466.56 988.31 467.12 989.85 468.1 991.12 469.37 992.25 470.92 993.1 473.03 993.65 475.29 993.94 477.96 993.8 480.78 993.38 483.31 992.67 485.57 991.54 487.39 990 488.94 988.16 490.07 986.05 490.92 983.81 491.34 984.08 498.1 984.08 498.1"/><polygon class="cls-3" points="999.44 506.69 993.1 506.41 992.11 524.15 946.06 521.33 945.64 528.51 991.69 531.19 990.56 549.08 996.89 549.36 999.44 506.69 999.44 506.69"/><polygon class="cls-3" points="995.78 559.64 960.42 553.86 958.18 553.73 955.78 553.73 953.25 554.15 951.13 554.85 948.74 555.84 946.77 557.25 944.94 558.79 943.25 560.63 941.97 562.74 940.85 565.13 940.01 567.81 939.44 570.76 939.02 575.55 939.3 579.78 939.72 581.75 940.43 583.58 941.13 585.27 942.26 586.96 943.25 588.37 944.52 589.77 947.47 592.03 950.71 593.72 954.09 594.7 989.01 600.34 990.28 593.29 956.62 587.81 956.2 587.66 953.94 587.1 951.69 586.25 949.87 585.13 948.17 583.58 946.9 581.75 946.06 579.64 945.5 577.24 945.36 574.85 945.5 572.17 946.21 569.35 947.32 566.82 948.88 564.71 950.85 563.16 952.96 561.89 955.63 561.19 958.45 561.05 961.55 561.33 994.65 566.68 995.78 559.64 995.78 559.64"/><path class="cls-3" d="M985.63,617l-50.41-14.36-6.06,21.4-.43,2.25-.28,2.11v2.25l.28,2.11.58,2.11.69,2,1,2,1.26,2,1.42,1.68,1.68,1.69,1.84,1.55,2,1.55,2.25,1.27,2.54,1.26,2.53,1,2.82,1,2.82.56,2.67.56,2.67.14H960l2.54-.14,2.39-.56,2.25-.7,2.11-.85,2.67-1.55,2.11-1.83,1.69-2.11,1.69-2.39,1.42-2.54.84-2.39,5.91-21Zm-46.48-5.77,38.73,11-3.51,12.25-1.27,3.38-1.82,2.82-1,1.26-1.26,1-2.67,1.55-3.24,1-3.53.43-3.95-.28-4.37-1-3.8-1.27-3.38-1.55L941.28,640l-2.4-1.84-1.13-1.4-1.13-1.55-.71-1.41-.69-1.69-.29-1.55-.28-1.55.13-1.55.29-1.55,4.08-14.64Z" transform="translate(0 -1.48)"/><polygon class="cls-3" points="969.15 669.9 920.58 650.19 906.06 686.1 911.98 688.49 923.82 659.34 939.86 665.82 929.16 692.29 935.08 694.69 945.77 668.21 960.56 674.27 948.88 703 954.8 705.39 969.15 669.9 969.15 669.9"/><polygon class="cls-3" points="949.01 717.64 902.97 692.72 899.59 698.77 936.91 719.05 886.91 722.29 883.11 729.33 929.31 754.26 932.55 748.2 895.22 728.07 945.08 725.11 949.01 717.64 949.01 717.64"/><polygon class="cls-3" points="924.09 762.99 918.74 759.33 908.74 773.97 870.72 747.92 866.63 753.84 904.79 779.89 894.66 794.68 899.88 798.19 924.09 762.99 924.09 762.99"/><polygon class="cls-3" points="893.39 806.65 853.26 772.85 828.33 802.42 833.12 806.5 853.4 782.42 866.77 793.69 848.33 815.52 853.11 819.6 871.57 797.77 883.82 808.05 863.82 831.85 868.61 835.94 893.39 806.65 893.39 806.65"/><polygon class="cls-3" points="859.46 845.8 823.26 807.77 818.19 812.56 847.49 843.26 798.9 831.01 793.12 836.5 829.32 874.52 834.39 869.74 805.09 838.89 853.26 851.57 859.46 845.8 859.46 845.8"/><polygon class="cls-3" points="226.73 850.86 221.8 857.2 217.43 850.44 213.77 852.69 218.56 859.46 210.53 861.85 211.94 866.07 219.83 863.54 219.4 871.85 223.91 871.99 224.19 863.68 224.62 863.82 230.53 866.07 231.94 866.5 233.06 862.41 225.32 860.02 230.25 853.54 226.73 850.86 226.73 850.86"/><polygon class="cls-3" points="254.47 871.28 251.23 876.78 266.44 885.93 242.92 925.5 249.12 929.16 272.64 889.59 287.99 898.61 291.23 893.11 254.47 871.28 254.47 871.28"/><polygon class="cls-3" points="294.61 894.94 279.54 927.47 278.83 929.58 278.27 931.98 277.99 934.38 277.99 936.63 278.41 939.16 279.11 941.55 280.24 943.81 281.51 945.78 283.2 947.61 285.31 949.3 287.7 950.85 290.38 952.26 294.75 953.95 296.86 954.37 298.83 954.65 300.94 954.8 302.92 954.65 304.75 954.37 306.72 953.81 309.96 952.26 312.91 950.15 315.45 947.47 317.28 944.37 332.06 912.27 325.59 909.16 311.36 940.14 311.08 940.57 309.82 942.54 308.55 944.52 306.86 946.06 304.89 947.19 302.77 947.89 300.52 948.17 298.27 948.17 295.73 947.61 293.34 946.77 290.66 945.22 288.55 943.53 287 941.42 286.01 939.16 285.45 936.77 285.45 934.09 285.87 931.28 287 928.32 301.08 897.9 294.61 894.94 294.61 894.94"/><polygon class="cls-3" points="358.54 921.84 343.9 972.26 381.07 983.1 382.76 976.9 352.63 968.17 357.41 951.41 384.88 959.44 386.56 953.39 359.24 945.36 363.61 930.01 393.47 938.74 395.29 932.54 358.54 921.84 358.54 921.84"/><polygon class="cls-3" points="403.88 934.09 392.9 985.36 399.94 986.9 410.93 935.64 403.88 934.09 403.88 934.09"/><polygon class="cls-3" points="420.5 937.9 413.6 990 420.5 990.84 426.14 948.74 446.98 994.36 454.87 995.49 461.76 943.53 455.01 942.54 449.38 984.65 428.95 939.02 420.5 937.9 420.5 937.9"/><path class="cls-3" d="M470.21,945.57,469.09,998l22.11.56,2.25-.14,2.25-.28,2.11-.56,2-.85,2-1,1.69-1.27,1.69-1.41,1.55-1.69,1.26-1.83,1.27-2.12,1-2.11,1-2.39.71-2.54.56-2.67.28-2.82.14-2.81v-3l-.29-2.68-.42-2.67-.71-2.53-.84-2.26-1-2.25-1.27-2-1.4-1.84-2.11-2.11-2.25-1.69L500.07,948l-2.82-1-2.67-.71L492,946l-21.83-.43ZM476.27,992l1-40.27,12.67.28,3.66.43,3.1,1,2.82,1.69,1.13,1,1.13,1.27,1.69,2.81,1.27,3.38.7,3.94.14,4.37-.28,4.08-.7,3.52-1,3.24-1.26,2.81-1,1.41-1.13,1.41-1.26,1.13-1.41,1-1.41.85-1.55.56-1.55.28-1.55.14L476.27,992Z" transform="translate(0 -1.48)"/><polygon class="cls-3" points="519.51 944.65 524.29 996.9 531.33 996.34 529.22 971.98 556.26 969.44 558.51 993.8 565.7 993.24 560.91 940.99 553.73 941.55 555.69 963.1 528.66 965.64 526.68 944.09 519.51 944.65 519.51 944.65"/><path class="cls-3" d="M590.91,935.43l-2.82.71-2.54.84-2.39,1.13L581,939.51l-2,1.41-1.82,1.69-1.55,2-1.42,2L573,948.81l-.84,2.25-.71,2.53-.56,2.54-.28,2.67v2.82l.28,3,.56,3,.71,3,1,2.81,1.13,2.54,1.27,2.39,1.4,2.26,1.69,2,1.84,1.83,2,1.55,2,1.26,2.24,1.13,2.25.85,2.54.56,2.53.28,2.53.14,2.67-.14,2.82-.42,2.82-.71,2.53-1,2.4-1.13,2.11-1.26,2.11-1.55,1.69-1.68,1.69-2,1.27-2,1.26-2.25.85-2.25.84-2.54.42-2.54.29-2.82V963l-.29-3-.55-3-.71-3-1-2.81-1.13-2.54-1.27-2.39L616,944.3l-1.69-2-1.84-1.83-2-1.55-2-1.26-2.25-1.13-2.24-.85-2.54-.56-2.53-.28-2.54-.14-2.81.14-2.67.56Zm1.11,6.06,2-.28,2-.14,2,.14,1.82.28,1.69.56,1.69.56,1.55,1,1.55,1,1.42,1.27,1.26,1.26,1.27,1.55,1,1.68L613,954.3l1.27,4.37.56,4.65v4.22l-.85,3.8-1.4,3.52-2.11,3-1.27,1.27-1.42,1.13-1.55,1-1.69.85-1.82.71-1.84.56-2.11.28-1.84.14-2-.14-1.84-.28-3.37-1.13-1.55-1-1.56-1-1.4-1.27L584,977.68l-1.13-1.55-1.13-1.83-1.82-3.8L578.65,966l-.56-4.5.14-4.23.71-3.8,1.55-3.52,2-3,1.27-1.27,1.4-1.13,1.55-1,1.69-.85,1.84-.7,1.82-.56Z" transform="translate(0 -1.48)"/><polygon class="cls-3" points="617.38 929.58 651.74 973.52 659.05 971.13 660.89 915.22 653.14 917.76 653.01 964.93 624.84 927.05 617.38 929.58 617.38 929.58"/><polygon class="cls-3" points="665.25 913.25 686.66 961.13 722.01 945.36 719.48 939.58 690.74 952.4 683.57 936.63 709.76 924.94 707.08 919.17 681.03 930.71 674.55 916.21 702.86 903.53 700.33 897.76 665.25 913.25 665.25 913.25"/><polygon class="cls-3" points="706.24 894.66 732.71 940.01 738.62 936.49 717.36 899.87 761.72 923.11 768.62 919.02 742.29 873.68 736.23 877.2 757.64 913.96 713.55 890.44 706.24 894.66 706.24 894.66"/><polygon class="cls-3" points="770.03 853.68 774.82 860.02 767.21 862.55 768.34 866.64 776.09 863.82 776.37 872.13 780.87 871.85 780.46 863.54 788.34 866.07 789.61 861.85 781.71 859.46 782 859.18 785.66 853.96 786.51 852.69 782.84 850.44 778.34 857.34 773.55 851.01 770.03 853.68 770.03 853.68"/><path class="cls-3" d="M493.24,737.29H521.1l60.33,40.79a82.65,82.65,0,0,0-158.66-43.38l84,56.8H478.93l-60.49-40.9A82.65,82.65,0,0,0,577.11,794Z" transform="translate(0 -1.48)"/><polygon class="cls-3" points="513.52 667.79 563.8 504.72 436.21 504.72 486.34 667.79 513.52 667.79 513.52 667.79"/><polyline class="cls-3" points="567.87 491.06 618.15 327.99 554.36 327.99 527.18 409.52 500 348.4 472.82 409.52 445.64 327.99 381.85 327.99 431.98 491.06 472.82 491.06 500 429.94 527.18 491.06 567.87 491.06"/><polyline class="cls-3" points="513.52 491.06 513.52 477.54 486.34 477.54 486.34 491.06 513.52 491.06"/><polyline class="cls-3" points="622.24 314.46 632.79 280.52 561.12 280.52 561.12 246.44 643.22 246.44 651.53 219.27 561.12 219.27 561.12 185.33 661.95 185.33 672.51 151.39 506.76 151.39 506.76 314.46 622.24 314.46"/><polyline class="cls-3" points="493.24 314.46 493.24 232.93 438.74 232.93 438.74 266.87 459.16 266.87 459.16 280.52 429.73 280.52 398.04 185.33 459.16 185.33 459.16 192.09 493.24 192.09 493.24 151.39 327.49 151.39 377.63 314.46 493.24 314.46"/></g></svg>