<?xml version="1.0" encoding="utf-8"?>
<!-- Generator: Adobe Illustrator 21.0.2, SVG Export Plug-In . SVG Version: 6.00 Build 0)  -->
<svg version="1.1" id="Layer_1" xmlns="http://www.w3.org/2000/svg" xmlns:xlink="http://www.w3.org/1999/xlink" x="0px" y="0px"
	 viewBox="0 0 50 50" style="enable-background:new 0 0 50 50;" xml:space="preserve">
<style type="text/css">
	.st0{display:none;fill:none;stroke:#000000;stroke-miterlimit:10;}
	.st1{clip-path:url(#SVGID_2_);fill:#EAEAEA;}
	.st2{clip-path:url(#SVGID_4_);}
	.st3{fill:#E10000;}
	.st4{clip-path:url(#SVGID_6_);}
	.st5{clip-path:url(#SVGID_8_);}
	.st6{clip-path:url(#SVGID_10_);}
	.st7{display:none;}
	.st8{display:inline;}
	.st9{fill:#0B7A56;}
	.st10{fill:#E5D900;}
	.st11{display:inline;fill:none;}
</style>
<rect x="-225.5" y="-225.5" class="st0" width="500" height="500"/>
<g>
	<g>
		<g>
			<defs>
				<rect id="SVGID_1_" width="50" height="50"/>
			</defs>
			<clipPath id="SVGID_2_">
				<use xlink:href="#SVGID_1_"  style="overflow:visible;"/>
			</clipPath>
			<path class="st1" d="M47.5,47.5v-41c0-2.2-1.8-4-4-4h-37c-2.2,0-4,1.8-4,4v37c0,2.2,1.8,4,4,4H47.5z"/>
		</g>
	</g>
	<g>
		<g>
			<defs>
				<rect id="SVGID_3_" width="50" height="50"/>
			</defs>
			<clipPath id="SVGID_4_">
				<use xlink:href="#SVGID_3_"  style="overflow:visible;"/>
			</clipPath>
			<g class="st2">
				<path class="st3" d="M15.1,16.5v-1.4c0-0.1,0-0.2,0.1-0.3c0.1-0.1,0.2-0.2,0.3-0.3l4.9-2.5c0.1-0.1,0.3-0.1,0.5-0.2
					c0.2-0.1,0.3-0.1,0.5-0.1c-0.2,0-0.4-0.1-0.5-0.1c-0.2-0.1-0.3-0.1-0.5-0.2l-4.9-2.5c-0.2-0.1-0.3-0.2-0.3-0.3
					c-0.1-0.1-0.1-0.2-0.1-0.3V6.9l8.5,4.4v0.8L15.1,16.5z"/>
				<rect x="25.3" y="17.4" class="st3" width="8.6" height="1.3"/>
			</g>
		</g>
	</g>
	<g>
		<g>
			<defs>
				<rect id="SVGID_5_" width="50" height="50"/>
			</defs>
			<clipPath id="SVGID_6_">
				<use xlink:href="#SVGID_5_"  style="overflow:visible;"/>
			</clipPath>
			<g class="st4">
				<rect x="9.8" y="33" class="st3" width="7.6" height="1.2"/>
				<rect x="21.1" y="33" class="st3" width="7.6" height="1.2"/>
				<rect x="32.5" y="33" class="st3" width="7.6" height="1.2"/>
			</g>
		</g>
	</g>
	<g>
		<g>
			<defs>
				<rect id="SVGID_7_" width="50" height="50"/>
			</defs>
			<clipPath id="SVGID_8_">
				<use xlink:href="#SVGID_7_"  style="overflow:visible;"/>
			</clipPath>
			<g class="st5">
				<path class="st3" d="M12.4,26.6c0-0.2,0-0.3,0.1-0.5c0.1-0.2,0.1-0.3,0.3-0.4c0.1-0.1,0.2-0.2,0.4-0.3c0.1-0.1,0.3-0.1,0.5-0.1
					c0.2,0,0.3,0,0.5,0.1c0.1,0.1,0.3,0.2,0.4,0.3c0.1,0.1,0.2,0.2,0.3,0.4c0.1,0.1,0.1,0.3,0.1,0.5c0,0.2,0,0.3-0.1,0.5
					c-0.1,0.1-0.1,0.3-0.3,0.4c-0.1,0.1-0.2,0.2-0.4,0.3c-0.2,0.1-0.3,0.1-0.5,0.1c-0.2,0-0.3,0-0.5-0.1c-0.1-0.1-0.3-0.1-0.4-0.3
					c-0.1-0.1-0.2-0.2-0.3-0.4C12.4,26.9,12.4,26.8,12.4,26.6z"/>
				<path class="st3" d="M24.2,26.6c0-0.2,0-0.3,0.1-0.5c0.1-0.2,0.1-0.3,0.3-0.4s0.2-0.2,0.4-0.3c0.1-0.1,0.3-0.1,0.5-0.1
					c0.2,0,0.3,0,0.5,0.1c0.1,0.1,0.3,0.2,0.4,0.3s0.2,0.2,0.3,0.4c0.1,0.1,0.1,0.3,0.1,0.5c0,0.2,0,0.3-0.1,0.5s-0.1,0.3-0.3,0.4
					c-0.1,0.1-0.2,0.2-0.4,0.3c-0.1,0.1-0.3,0.1-0.5,0.1c-0.2,0-0.3,0-0.5-0.1c-0.1-0.1-0.3-0.1-0.4-0.3c-0.1-0.1-0.2-0.2-0.3-0.4
					C24.2,26.9,24.2,26.8,24.2,26.6z"/>
				<path class="st3" d="M35.1,26.6c0-0.2,0-0.3,0.1-0.5c0.1-0.2,0.2-0.3,0.3-0.4c0.1-0.1,0.2-0.2,0.4-0.3c0.1-0.1,0.3-0.1,0.5-0.1
					c0.2,0,0.3,0,0.5,0.1c0.1,0.1,0.3,0.2,0.4,0.3s0.2,0.2,0.3,0.4c0.1,0.1,0.1,0.3,0.1,0.5c0,0.2,0,0.3-0.1,0.5s-0.1,0.3-0.3,0.4
					c-0.1,0.1-0.2,0.2-0.4,0.3c-0.2,0.1-0.3,0.1-0.5,0.1c-0.2,0-0.3,0-0.5-0.1c-0.2-0.1-0.3-0.1-0.4-0.3c-0.1-0.1-0.2-0.2-0.3-0.4
					C35.1,26.9,35.1,26.8,35.1,26.6z"/>
			</g>
		</g>
	</g>
	<g>
		<g>
			<defs>
				<rect id="SVGID_9_" width="50" height="50"/>
			</defs>
			<clipPath id="SVGID_10_">
				<use xlink:href="#SVGID_9_"  style="overflow:visible;"/>
			</clipPath>
			<g class="st6">
				<path class="st3" d="M12.4,40.6c0-0.2,0-0.3,0.1-0.5c0.1-0.2,0.1-0.3,0.3-0.4c0.1-0.1,0.2-0.2,0.4-0.3s0.3-0.1,0.5-0.1
					c0.2,0,0.3,0,0.5,0.1c0.1,0.1,0.3,0.2,0.4,0.3c0.1,0.1,0.2,0.2,0.3,0.4c0.1,0.1,0.1,0.3,0.1,0.5c0,0.2,0,0.3-0.1,0.5
					c-0.1,0.1-0.1,0.3-0.3,0.4c-0.1,0.1-0.2,0.2-0.4,0.3c-0.2,0.1-0.3,0.1-0.5,0.1c-0.2,0-0.3,0-0.5-0.1c-0.1-0.1-0.3-0.2-0.4-0.3
					c-0.1-0.1-0.2-0.2-0.3-0.4C12.4,40.9,12.4,40.8,12.4,40.6z"/>
				<path class="st3" d="M24.2,40.6c0-0.2,0-0.3,0.1-0.5c0.1-0.2,0.1-0.3,0.3-0.4s0.2-0.2,0.4-0.3c0.1-0.1,0.3-0.1,0.5-0.1
					c0.2,0,0.3,0,0.5,0.1c0.1,0.1,0.3,0.2,0.4,0.3s0.2,0.2,0.3,0.4c0.1,0.1,0.1,0.3,0.1,0.5c0,0.2,0,0.3-0.1,0.5
					c-0.1,0.1-0.1,0.3-0.3,0.4c-0.1,0.1-0.2,0.2-0.4,0.3c-0.1,0.1-0.3,0.1-0.5,0.1c-0.2,0-0.3,0-0.5-0.1c-0.1-0.1-0.3-0.2-0.4-0.3
					c-0.1-0.1-0.2-0.2-0.3-0.4C24.2,40.9,24.2,40.8,24.2,40.6z"/>
				<path class="st3" d="M35.1,40.6c0-0.2,0-0.3,0.1-0.5c0.1-0.2,0.2-0.3,0.3-0.4c0.1-0.1,0.2-0.2,0.4-0.3c0.1-0.1,0.3-0.1,0.5-0.1
					c0.2,0,0.3,0,0.5,0.1c0.1,0.1,0.3,0.2,0.4,0.3s0.2,0.2,0.3,0.4c0.1,0.1,0.1,0.3,0.1,0.5c0,0.2,0,0.3-0.1,0.5
					c-0.1,0.1-0.1,0.3-0.3,0.4c-0.1,0.1-0.2,0.2-0.4,0.3c-0.2,0.1-0.3,0.1-0.5,0.1c-0.2,0-0.3,0-0.5-0.1c-0.2-0.1-0.3-0.2-0.4-0.3
					c-0.1-0.1-0.2-0.2-0.3-0.4C35.1,40.9,35.1,40.8,35.1,40.6z"/>
			</g>
		</g>
	</g>
</g>
<image style="display:none;overflow:visible;enable-background:new    ;" width="200" height="167" xlink:href="463045C2.jpeg"  transform="matrix(1 0 0 1 -66 -58)">
</image>
<g class="st7">
	<g class="st8">
		<rect x="-213.5" y="-212.5" class="st9" width="475" height="475"/>
		<path class="st10" d="M250,210c0,22.1-17.9,40-40,40h-370c-22.1,0-40-17.9-40-40v-370c0-22.1,17.9-40,40-40h370
			c22.1,0,40,17.9,40,40V210z M275-225h-500v500h500V-225L275-225z"/>
	</g>
	<g class="st8">
		<path class="st10" d="M-73.7-59.6v-14.1c0-1.2,0.3-2.2,0.9-3.2c0.6-1,1.6-1.8,3.1-2.5l49.3-24.9c1.5-0.7,3-1.4,4.6-2
			s3.3-1.1,5.1-1.4c-1.8-0.4-3.5-0.9-5.1-1.5c-1.6-0.5-3.1-1.2-4.6-2l-49.3-25c-1.5-0.7-2.5-1.6-3.1-2.5s-0.9-2-0.9-3.2v-14l84.9,44
			v8.1L-73.7-59.6z"/>
		<rect x="27.5" y="-50.8" class="st10" width="86.5" height="13.2"/>
	</g>
	<g class="st8">
		<rect x="-127.2" y="34.7" class="st10" width="76.2" height="11.6"/>
		<rect x="-13.6" y="34.7" class="st10" width="76.2" height="11.6"/>
		<rect x="99.9" y="34.7" class="st10" width="76.2" height="11.6"/>
	</g>
	<g class="st8">
		<rect x="-127.2" y="175.4" class="st10" width="76.2" height="11.6"/>
		<rect x="-13.6" y="175.4" class="st10" width="76.2" height="11.6"/>
		<rect x="99.9" y="175.4" class="st10" width="76.2" height="11.6"/>
	</g>
	<g class="st8">
		<path class="st10" d="M-101.1,110.9c0-1.7,0.3-3.3,0.9-4.7c0.6-1.5,1.5-2.8,2.5-3.9s2.3-2,3.8-2.6s3.1-1,4.7-1
			c1.7,0,3.3,0.3,4.7,1c1.5,0.6,2.8,1.5,3.9,2.6c1.1,1.1,1.9,2.4,2.6,3.9c0.6,1.5,0.9,3.1,0.9,4.7c0,1.7-0.3,3.3-0.9,4.8
			c-0.6,1.5-1.5,2.7-2.6,3.8c-1.1,1.1-2.4,2-3.9,2.6s-3.1,0.9-4.7,0.9c-1.7,0-3.3-0.3-4.7-0.9c-1.5-0.6-2.8-1.5-3.8-2.6
			c-1.1-1.1-1.9-2.4-2.5-3.8C-100.8,114.2-101.1,112.6-101.1,110.9z"/>
		<path class="st10" d="M16.9,110.9c0-1.7,0.3-3.3,0.9-4.7c0.6-1.5,1.5-2.8,2.5-3.9s2.3-2,3.8-2.6s3.1-1,4.7-1c1.7,0,3.3,0.3,4.7,1
			c1.5,0.6,2.8,1.5,3.9,2.6s1.9,2.4,2.6,3.9c0.6,1.5,0.9,3.1,0.9,4.7c0,1.7-0.3,3.3-0.9,4.8s-1.5,2.7-2.6,3.8
			c-1.1,1.1-2.4,2-3.9,2.6s-3.1,0.9-4.7,0.9c-1.7,0-3.3-0.3-4.7-0.9c-1.5-0.6-2.8-1.5-3.8-2.6c-1.1-1.1-1.9-2.4-2.5-3.8
			C17.2,114.2,16.9,112.6,16.9,110.9z"/>
		<path class="st10" d="M126,110.9c0-1.7,0.3-3.3,0.9-4.7c0.6-1.5,1.5-2.8,2.5-3.9c1.1-1.1,2.3-2,3.8-2.6s3.1-1,4.7-1
			c1.7,0,3.3,0.3,4.7,1c1.5,0.6,2.8,1.5,3.9,2.6s1.9,2.4,2.6,3.9c0.6,1.5,0.9,3.1,0.9,4.7c0,1.7-0.3,3.3-0.9,4.8s-1.5,2.7-2.6,3.8
			c-1.1,1.1-2.4,2-3.9,2.6s-3.1,0.9-4.7,0.9c-1.7,0-3.3-0.3-4.7-0.9c-1.5-0.6-2.8-1.5-3.8-2.6c-1.1-1.1-1.9-2.4-2.5-3.8
			C126.3,114.2,126,112.6,126,110.9z"/>
	</g>
	<rect x="-225" y="-225" class="st11" width="500" height="500"/>
</g>
</svg>
