<?xml version="1.0" encoding="utf-8"?>
<!-- Generator: Adobe Illustrator 21.0.2, SVG Export Plug-In . SVG Version: 6.00 Build 0)  -->
<svg version="1.1" id="Layer_1" xmlns="http://www.w3.org/2000/svg" xmlns:xlink="http://www.w3.org/1999/xlink" x="0px" y="0px"
	 viewBox="0 0 50 50" style="enable-background:new 0 0 50 50;" xml:space="preserve">
<style type="text/css">
	.st0{fill:#EAEAEA;}
	.st1{fill:#E10000;}
</style>
<g>
	<path class="st0" d="M50,50V4.4C50,2,48,0,45.6,0H4.4C2,0,0,2,0,4.4v41.1C0,48,2,50,4.4,50H50z"/>
	<g>
		<path class="st1" d="M14,15.6V14c0-0.1,0-0.2,0.1-0.3s0.2-0.2,0.3-0.3l5.4-2.8c0.1-0.1,0.3-0.1,0.6-0.2c0.2-0.1,0.3-0.1,0.6-0.1
			c-0.2,0-0.4-0.1-0.6-0.1c-0.2-0.1-0.3-0.1-0.6-0.2l-5.4-2.8c-0.2-0.1-0.3-0.2-0.3-0.3C14,6.7,14,6.6,14,6.4V4.9l9.4,4.9v0.9
			L14,15.6z"/>
		<rect x="25.3" y="16.6" class="st1" width="9.6" height="1.4"/>
	</g>
	<g>
		<rect x="8.1" y="33.9" class="st1" width="8.4" height="1.3"/>
		<rect x="20.7" y="33.9" class="st1" width="8.4" height="1.3"/>
		<rect x="33.3" y="33.9" class="st1" width="8.4" height="1.3"/>
	</g>
	<g>
		<path class="st1" d="M11,26.8c0-0.2,0-0.3,0.1-0.6c0.1-0.2,0.1-0.3,0.3-0.4c0.1-0.1,0.2-0.2,0.4-0.3c0.1-0.1,0.3-0.1,0.6-0.1
			c0.2,0,0.3,0,0.6,0.1c0.1,0.1,0.3,0.2,0.4,0.3c0.1,0.1,0.2,0.2,0.3,0.4c0.1,0.1,0.1,0.3,0.1,0.6s0,0.3-0.1,0.6
			c-0.1,0.1-0.1,0.3-0.3,0.4c-0.1,0.1-0.2,0.2-0.4,0.3c-0.2,0.1-0.3,0.1-0.6,0.1c-0.2,0-0.3,0-0.6-0.1c-0.1-0.1-0.3-0.1-0.4-0.3
			c-0.1-0.1-0.2-0.2-0.3-0.4C11,27.1,11,27,11,26.8z"/>
		<path class="st1" d="M24.1,26.8c0-0.2,0-0.3,0.1-0.6c0.1-0.2,0.1-0.3,0.3-0.4c0.2-0.1,0.2-0.2,0.4-0.3c0.1-0.1,0.3-0.1,0.6-0.1
			s0.3,0,0.6,0.1c0.1,0.1,0.3,0.2,0.4,0.3c0.1,0.1,0.2,0.2,0.3,0.4c0.1,0.1,0.1,0.3,0.1,0.6s0,0.3-0.1,0.6c-0.1,0.2-0.1,0.3-0.3,0.4
			c-0.1,0.1-0.2,0.2-0.4,0.3c-0.1,0.1-0.3,0.1-0.6,0.1s-0.3,0-0.6-0.1c-0.1-0.1-0.3-0.1-0.4-0.3c-0.1-0.1-0.2-0.2-0.3-0.4
			C24.1,27.1,24.1,27,24.1,26.8z"/>
		<path class="st1" d="M36.2,26.8c0-0.2,0-0.3,0.1-0.6c0.1-0.2,0.2-0.3,0.3-0.4c0.1-0.1,0.2-0.2,0.4-0.3c0.1-0.1,0.3-0.1,0.6-0.1
			s0.3,0,0.6,0.1c0.1,0.1,0.3,0.2,0.4,0.3c0.1,0.1,0.2,0.2,0.3,0.4c0.1,0.1,0.1,0.3,0.1,0.6s0,0.3-0.1,0.6c-0.1,0.2-0.1,0.3-0.3,0.4
			c-0.1,0.1-0.2,0.2-0.4,0.3c-0.2,0.1-0.3,0.1-0.6,0.1s-0.3,0-0.6-0.1c-0.2-0.1-0.3-0.1-0.4-0.3c-0.1-0.1-0.2-0.2-0.3-0.4
			C36.2,27.1,36.2,27,36.2,26.8z"/>
	</g>
	<g>
		<path class="st1" d="M11,42.3c0-0.2,0-0.3,0.1-0.6c0.1-0.2,0.1-0.3,0.3-0.4c0.1-0.1,0.2-0.2,0.4-0.3c0.2-0.1,0.3-0.1,0.6-0.1
			c0.2,0,0.3,0,0.6,0.1c0.1,0.1,0.3,0.2,0.4,0.3c0.1,0.1,0.2,0.2,0.3,0.4c0.1,0.1,0.1,0.3,0.1,0.6c0,0.2,0,0.3-0.1,0.6
			c-0.1,0.1-0.1,0.3-0.3,0.4c-0.1,0.1-0.2,0.2-0.4,0.3c-0.2,0.1-0.3,0.1-0.6,0.1c-0.2,0-0.3,0-0.6-0.1c-0.1-0.1-0.3-0.2-0.4-0.3
			c-0.1-0.1-0.2-0.2-0.3-0.4C11,42.7,11,42.6,11,42.3z"/>
		<path class="st1" d="M24.1,42.3c0-0.2,0-0.3,0.1-0.6c0.1-0.2,0.1-0.3,0.3-0.4c0.2-0.1,0.2-0.2,0.4-0.3c0.1-0.1,0.3-0.1,0.6-0.1
			s0.3,0,0.6,0.1c0.1,0.1,0.3,0.2,0.4,0.3c0.1,0.1,0.2,0.2,0.3,0.4c0.1,0.1,0.1,0.3,0.1,0.6c0,0.2,0,0.3-0.1,0.6
			c-0.1,0.1-0.1,0.3-0.3,0.4c-0.1,0.1-0.2,0.2-0.4,0.3c-0.1,0.1-0.3,0.1-0.6,0.1s-0.3,0-0.6-0.1c-0.1-0.1-0.3-0.2-0.4-0.3
			c-0.1-0.1-0.2-0.2-0.3-0.4C24.1,42.7,24.1,42.6,24.1,42.3z"/>
		<path class="st1" d="M36.2,42.3c0-0.2,0-0.3,0.1-0.6c0.1-0.2,0.2-0.3,0.3-0.4c0.1-0.1,0.2-0.2,0.4-0.3c0.1-0.1,0.3-0.1,0.6-0.1
			s0.3,0,0.6,0.1c0.1,0.1,0.3,0.2,0.4,0.3c0.1,0.1,0.2,0.2,0.3,0.4c0.1,0.1,0.1,0.3,0.1,0.6c0,0.2,0,0.3-0.1,0.6
			c-0.1,0.1-0.1,0.3-0.3,0.4c-0.1,0.1-0.2,0.2-0.4,0.3c-0.2,0.1-0.3,0.1-0.6,0.1s-0.3,0-0.6-0.1c-0.2-0.1-0.3-0.2-0.4-0.3
			c-0.1-0.1-0.2-0.2-0.3-0.4C36.2,42.7,36.2,42.6,36.2,42.3z"/>
	</g>
</g>
</svg>
