<?xml version="1.0" encoding="utf-8"?>
<!-- Generator: Adobe Illustrator 19.1.0, SVG Export Plug-In . SVG Version: 6.00 Build 0)  -->
<svg version="1.1" id="Layer_1" xmlns="http://www.w3.org/2000/svg" xmlns:xlink="http://www.w3.org/1999/xlink" x="0px" y="0px"
	 viewBox="-512 364 24 24" style="enable-background:new -512 364 24 24;" xml:space="preserve">
<style type="text/css">
	.st0{fill:#FFFFFF;}
	.st1{fill:none;}
</style>
<path class="st0" d="M-509,369v14c0,1.1,0.9,2,2,2h14c1.1,0,2-0.9,2-2v-14c0-1.1-0.9-2-2-2h-14C-508.1,367-509,367.9-509,369z
	 M-497,373c0,1.7-1.3,3-3,3s-3-1.3-3-3s1.3-3,3-3S-497,371.3-497,373z M-506,381c0-2,4-3.1,6-3.1s6,1.1,6,3.1v1h-12V381z"/>
<path class="st1" d="M-512,364h24v24h-24V364z"/>
</svg>
