<?xml version="1.0" encoding="utf-8"?>
<!-- Generator: Adobe Illustrator 21.0.2, SVG Export Plug-In . SVG Version: 6.00 Build 0)  -->
<svg version="1.1" id="Layer_1" xmlns="http://www.w3.org/2000/svg" xmlns:xlink="http://www.w3.org/1999/xlink" x="0px" y="0px"
	 viewBox="0 0 24 24" style="enable-background:new 0 0 24 24;" xml:space="preserve">
<style type="text/css">
	.st0{fill:#FFFFFF;}
	.st1{fill:none;}
</style>
<path class="st0" d="M0,2.7v18.7C0,22.8,1.2,24,2.7,24h18.7c1.5,0,2.7-1.2,2.7-2.7V2.7C24,1.2,22.8,0,21.3,0H2.7C1.2,0,0,1.2,0,2.7z
	 M16,8c0,2.3-1.7,4-4,4s-4-1.7-4-4s1.7-4,4-4S16,5.7,16,8z M4,18.7c0-2.7,5.3-4.1,8-4.1s8,1.5,8,4.1V20H4V18.7z"/>
<path class="st1" d="M0,0h24v24H0V0z"/>
</svg>
